<?xml version="1.0" encoding="utf-8"?>
<!-- Generator: Adobe Illustrator 26.1.0, SVG Export Plug-In . SVG Version: 6.00 Build 0)  -->
<svg version="1.1" id="Слой_1" xmlns="http://www.w3.org/2000/svg" xmlns:xlink="http://www.w3.org/1999/xlink" x="0px" y="0px"
	 viewBox="0 0 22 20" style="enable-background:new 0 0 22 20;" xml:space="preserve">
<style type="text/css">
	.st0{fill:#6F6F6F;}
	.st1{fill:#6F6F6F;stroke:#6F6F6F;stroke-width:1.5;stroke-miterlimit:10;}
</style>
<path class="st0" d="M11,20l-0.3-0.1C5.5,17.6,0,13.1,0,7.4C0,4,1.9,1.3,4.9,0.3C7.2-0.4,9.4,0.1,11,1.9c1.6-1.8,3.8-2.3,6.1-1.6
	c3,1,4.9,3.7,4.9,7.1c0,5.7-5.5,10.2-10.7,12.5L11,20z M6.9,1.6c-0.5,0-0.9,0.1-1.4,0.2C2.7,2.8,1.7,5.3,1.7,7.4
	c0,4.8,4.9,8.8,9.3,10.8c4.4-2,9.4-6,9.3-10.8c0-2.1-1-4.6-3.8-5.5c-2-0.6-3.6,0-4.9,1.8l-0.7,1l-0.7-1C9.4,2.3,8.2,1.6,6.9,1.6
	L6.9,1.6z"/>
<line class="st1" x1="11.1" y1="3.3" x2="9.4" y2="8"/>
<line class="st1" x1="9.3" y1="7.2" x2="13" y2="11.7"/>
<line class="st1" x1="12.9" y1="11" x2="10.5" y2="18.8"/>
</svg>
